# xmcd
#
# Track frame offsets: 
#        150
#        10315
#        27938
#        49547
#        65106
#        85643
#        99842
#        119996
#        133021
#        146955
#        171551
#        184411
#        204578
#        216076
#        235124
#        247855
#
# Disc length: 3646 seconds
#
# Revision: 0
# Processed by: cddbd v1.5.1PL0 Copyright (c) Steve Scherf et al.
# Submitted via: ExactAudioCopy v0.95a5
#
DISCID=ec0e3c10
DTITLE=Various Artist - Barrelhouse Blues and Boogie Woogie Vol. 1
DYEAR=1998
DGENRE=Blues
TTITLE0=Jack Dupree - Gravier Street Rag
TTITLE1=Albert Luandrew - Night Owl Blues
TTITLE2=Eurreal Montgomery - Joe Martin Blues
TTITLE3=Rufus Perryman - You Ain't No Good
TTITLE4=Jack Dupree - My Mother Is Gone
TTITLE5=Peter Chatman - Boogie Woogie for Piano and Celeste
TTITLE6=Jack Dupree - I Just Want To Be Free
TTITLE7=Albert Luandrew - Get Further Little Brother
TTITLE8=Jack Dupree - My Own Blues
TTITLE9=Peter Chatman - Burtha May
TTITLE10=Jack Dupree - Drive 'em Down Special
TTITLE11=Peter Chatman - Funky (Slow and Easy) Blues
TTITLE12=Jack Dupree - 41 Highway
TTITLE13=Jack Dupree - Drivin' Me Mad
TTITLE14=Peter Shatman - You're Gonna Worry Too
TTITLE15=Albert Luandrew - Honky Tonk Boogie
EXTD=
EXTT0=
EXTT1=
EXTT2=
EXTT3=
EXTT4=
EXTT5=
EXTT6=
EXTT7=
EXTT8=
EXTT9=
EXTT10=
EXTT11=
EXTT12=
EXTT13=
EXTT14=
EXTT15=
PLAYORDER=
